<?xml version="1.0" standalone="no"?>
<!DOCTYPE svg PUBLIC "-//W3C//DTD SVG 20010904//EN"
 "http://www.w3.org/TR/2001/REC-SVG-20010904/DTD/svg10.dtd">
<svg version="1.0" xmlns="http://www.w3.org/2000/svg"
 width="1560.000000pt" height="1560.000000pt" viewBox="0 0 1560.000000 1560.000000"
 preserveAspectRatio="xMidYMid meet">
<metadata>
Created by potrace 1.14, written by Peter Selinger 2001-2017
</metadata>
<g transform="translate(0.000000,1560.000000) scale(0.100000,-0.100000)"
fill="#000000" stroke="none">
<path d="M50 10649 c0 -6 7 -23 15 -39 9 -17 11 -30 5 -30 -5 0 -10 -7 -10
-15 0 -18 -5 -18 -31 -5 -29 16 -24 -7 22 -99 137 -274 420 -510 694 -580 105
-26 132 -31 270 -46 33 -4 71 -8 85 -10 14 -2 57 -7 95 -10 39 -4 81 -8 95
-10 14 -2 52 -7 85 -10 33 -3 76 -8 95 -10 19 -3 56 -7 83 -10 26 -3 68 -7 95
-10 26 -3 63 -7 82 -10 19 -2 80 -9 135 -15 55 -6 116 -13 135 -15 19 -2 62
-7 95 -10 33 -4 71 -8 85 -10 14 -2 57 -7 95 -11 39 -3 78 -8 88 -10 10 -2 64
-8 120 -14 56 -6 113 -13 127 -15 14 -2 50 -6 80 -10 30 -3 68 -9 84 -12 21
-4 26 -2 21 7 -5 9 2 11 28 7 34 -4 35 -4 27 22 -14 49 -32 156 -35 213 l-4
58 47 -5 c98 -10 148 -15 182 -19 19 -2 62 -7 95 -10 33 -4 71 -9 85 -11 14
-2 54 -7 90 -10 36 -3 76 -7 90 -9 14 -2 57 -7 95 -10 39 -4 81 -9 95 -11 14
-2 52 -7 85 -10 33 -3 71 -8 85 -10 14 -2 57 -6 95 -10 39 -3 77 -8 85 -10 8
-2 51 -7 95 -10 43 -4 82 -8 85 -9 3 -2 43 -7 90 -11 46 -3 87 -8 90 -10 3 -1
46 -6 95 -10 50 -4 92 -8 95 -10 3 -1 39 -6 80 -9 41 -4 144 -15 228 -25 89
-10 156 -13 159 -8 3 5 18 7 34 5 16 -3 29 -1 29 3 0 8 -19 15 -165 66 l-100
34 60 -6 c137 -12 171 -16 195 -20 44 -9 -1 13 -105 50 -122 45 -439 124 -590
148 -16 3 -100 17 -185 31 -85 15 -173 29 -195 32 -22 3 -71 9 -110 15 -38 6
-86 12 -105 14 -19 3 -51 7 -70 10 -19 3 -52 7 -72 10 -21 3 -53 7 -70 9 -18
3 -60 8 -93 12 -33 3 -68 8 -77 9 -9 2 -48 7 -85 10 -37 4 -76 9 -87 11 -10 2
-44 6 -75 9 -31 3 -72 8 -91 10 -19 3 -57 7 -85 10 -27 3 -66 8 -85 10 -19 2
-60 7 -90 10 -30 3 -86 9 -125 15 -38 5 -97 12 -130 15 -33 4 -73 8 -90 10
-16 2 -55 6 -85 10 -30 3 -71 8 -90 10 -19 3 -53 7 -75 9 -22 3 -58 8 -80 10
-80 11 -131 17 -175 22 -25 2 -60 6 -78 9 -18 3 -54 8 -80 11 -26 3 -58 7 -72
9 -14 2 -63 9 -110 15 -119 16 -147 20 -210 30 -30 5 -73 11 -95 15 -22 3 -51
7 -65 10 -14 2 -43 7 -65 10 -59 8 -268 45 -285 50 -8 2 -32 6 -53 10 -110 16
-478 104 -607 145 -36 12 -77 25 -92 30 -18 5 -28 5 -28 -1z"/>
<path d="M15505 10635 c-72 -24 -271 -80 -315 -89 -14 -3 -88 -19 -165 -36
-77 -18 -149 -33 -160 -35 -11 -1 -58 -9 -105 -18 -47 -9 -103 -19 -125 -22
-23 -3 -52 -8 -65 -10 -14 -3 -41 -8 -60 -11 -19 -2 -46 -7 -60 -9 -14 -3 -43
-7 -65 -10 -22 -4 -65 -10 -95 -15 -60 -10 -98 -15 -175 -26 -27 -3 -57 -7
-65 -9 -8 -1 -44 -6 -80 -10 -36 -4 -73 -9 -84 -11 -10 -2 -44 -6 -75 -10 -31
-3 -63 -8 -71 -9 -8 -2 -46 -6 -85 -10 -38 -4 -79 -9 -90 -11 -11 -2 -42 -6
-70 -9 -27 -3 -66 -7 -85 -10 -19 -2 -60 -7 -90 -10 -30 -3 -71 -8 -90 -10
-72 -10 -108 -14 -210 -25 -58 -6 -116 -13 -130 -15 -14 -2 -54 -7 -90 -10
-36 -4 -72 -8 -80 -10 -8 -2 -49 -6 -90 -10 -41 -4 -82 -8 -90 -10 -8 -1 -49
-6 -90 -11 -41 -4 -77 -8 -80 -9 -3 -1 -36 -5 -75 -9 -38 -5 -77 -10 -86 -11
-9 -2 -40 -6 -70 -10 -30 -3 -88 -10 -129 -16 -42 -5 -94 -12 -115 -14 -22 -3
-65 -10 -95 -15 -30 -5 -77 -12 -105 -15 -27 -4 -57 -8 -65 -10 -8 -2 -35 -7
-60 -10 -293 -40 -842 -168 -885 -206 -5 -5 -16 -9 -25 -9 -9 0 -25 -7 -36
-16 -19 -15 -19 -15 1 -10 23 5 78 12 180 22 39 3 75 9 80 12 7 3 7 2 0 -5 -8
-7 -132 -51 -225 -78 -6 -2 -59 -24 -85 -36 -21 -10 64 -3 205 16 19 3 67 7
105 10 39 3 77 8 85 10 8 2 49 7 90 10 41 3 82 8 90 10 8 2 49 7 90 10 41 3
82 8 90 10 8 2 49 7 90 10 41 4 82 8 90 10 8 2 49 6 90 10 41 4 82 8 90 10 8
2 49 6 90 10 41 4 82 8 90 10 9 2 47 6 85 10 39 3 81 8 95 10 14 2 54 6 90 9
36 4 74 8 85 10 11 2 52 7 90 11 39 3 84 8 100 10 17 2 57 7 90 10 33 3 74 8
90 10 17 3 61 7 99 10 37 3 73 7 80 8 12 2 15 -132 3 -193 -12 -64 -16 -81
-22 -101 -6 -17 -2 -19 27 -14 31 4 157 20 243 31 22 2 56 6 75 9 19 3 63 7
98 11 35 3 71 7 80 9 9 1 51 6 92 10 41 4 82 8 90 10 21 4 127 16 175 20 22 1
63 6 90 9 28 3 70 8 95 11 62 7 140 16 170 20 14 2 54 7 90 10 66 6 112 11
185 20 22 3 63 7 90 10 68 6 154 16 188 21 15 2 51 7 79 10 129 12 318 63 410
110 156 79 304 202 413 344 54 71 120 184 139 238 l15 42 -25 -6 -24 -6 20 46
c10 25 16 46 12 45 -4 0 -38 -11 -77 -24z m-4578 -811 c-3 -3 -12 -4 -19 -1
-8 3 -5 6 6 6 11 1 17 -2 13 -5z"/>
<path d="M490 9835 c5 -14 15 -35 20 -45 9 -16 8 -18 -6 -13 -14 5 -15 3 -5
-15 11 -21 11 -21 -24 -6 -19 8 -35 11 -35 7 0 -40 224 -351 345 -479 5 -6 53
-58 105 -115 52 -57 149 -159 215 -227 l121 -124 144 36 c191 46 363 80 510
101 122 17 275 36 316 40 28 2 78 7 110 10 133 12 162 15 234 20 41 2 129 7
195 9 l120 5 -110 -24 c-60 -13 -121 -26 -135 -28 -178 -32 -693 -188 -815
-247 -11 -5 -56 -25 -99 -45 l-79 -35 31 -24 32 -23 -52 -22 c-44 -18 -50 -23
-37 -35 12 -12 300 -216 397 -282 25 -17 39 -21 55 -14 48 18 391 111 464 125
118 23 357 64 398 69 293 36 301 38 297 62 -2 11 -5 32 -6 48 -4 48 -170 496
-183 496 -7 0 -13 6 -14 13 -2 27 -11 79 -46 242 -19 94 -35 176 -36 183 0 15
1 15 -132 17 -156 3 -486 16 -506 20 -10 2 -68 6 -130 10 -61 4 -119 8 -128
10 -9 2 -54 6 -100 10 -47 4 -92 8 -102 10 -10 2 -46 6 -81 10 -67 6 -178 23
-343 50 -16 3 -58 10 -91 15 -231 38 -643 143 -808 206 -14 5 -15 3 -6 -21z"/>
<path d="M15035 9823 c-90 -31 -379 -109 -480 -128 -22 -5 -44 -9 -50 -11 -17
-4 -189 -36 -215 -40 -14 -2 -41 -7 -60 -10 -19 -4 -45 -8 -57 -9 -12 -2 -34
-6 -50 -9 -15 -3 -52 -8 -82 -11 -30 -3 -57 -8 -60 -9 -3 -2 -40 -7 -81 -11
-41 -4 -82 -8 -90 -10 -37 -7 -176 -20 -325 -30 -55 -4 -116 -8 -135 -10 -49
-5 -405 -17 -527 -18 l-102 -1 -6 -31 c-11 -52 -16 -65 -25 -60 -8 5 -19 -40
-65 -265 -16 -74 -39 -159 -52 -188 -26 -56 -112 -289 -144 -387 -11 -33 -24
-68 -29 -77 -12 -22 -7 -25 65 -32 186 -20 362 -47 554 -87 53 -11 107 -22
121 -25 23 -5 107 -27 225 -59 28 -8 78 -23 113 -33 34 -11 65 -16 68 -11 3 5
15 9 27 9 12 0 114 65 227 145 112 80 208 145 212 145 22 0 4 27 -24 38 l-33
13 29 24 29 23 -49 25 c-79 40 -319 132 -460 176 -159 50 -444 123 -574 147
-52 9 -99 21 -104 25 -5 5 2 6 15 4 13 -2 76 -6 139 -10 63 -3 140 -8 170 -10
112 -10 217 -21 295 -30 22 -3 60 -7 85 -10 25 -3 54 -7 66 -9 12 -2 45 -7 74
-11 29 -4 62 -9 74 -11 12 -2 32 -6 46 -8 14 -3 42 -8 64 -11 72 -10 240 -46
354 -76 87 -23 117 -27 127 -19 8 7 19 8 26 5 12 -8 235 213 389 385 47 52 87
97 90 100 3 3 28 32 55 65 28 33 52 62 55 65 34 34 170 231 199 288 22 42 16
51 -20 32 -24 -13 -24 -9 1 40 22 43 24 51 13 49 -5 -1 -53 -17 -108 -36z
m-2228 -789 c-3 -3 -12 -4 -19 -1 -8 3 -5 6 6 6 11 1 17 -2 13 -5z"/>
<path d="M2986 9818 c4 -13 9 -36 10 -51 2 -26 0 -28 -27 -22 -16 4 -29 2 -29
-3 0 -5 14 -49 31 -98 131 -376 176 -505 214 -614 23 -69 107 -307 185 -530
78 -223 143 -409 144 -415 1 -5 4 -14 7 -20 3 -5 19 -49 35 -97 28 -87 37 -96
78 -89 37 7 396 -2 531 -14 194 -16 193 -16 305 -30 94 -12 306 -47 340 -55
19 -5 46 -11 60 -13 151 -27 415 -106 600 -179 41 -17 100 -38 130 -48 86 -28
616 -212 810 -280 96 -34 207 -73 245 -86 39 -13 77 -27 85 -31 8 -3 20 -7 25
-9 32 -8 661 -243 720 -269 208 -91 273 -117 290 -117 38 1 72 10 106 28 19
10 36 18 39 19 3 0 55 21 115 47 224 94 739 284 1290 477 622 216 808 282 930
325 193 69 508 148 685 171 25 3 56 8 70 10 51 10 227 29 370 40 138 11 234
15 390 14 187 0 178 -1 217 7 34 6 26 -9 103 209 32 91 356 1020 406 1165 18
52 64 186 103 298 66 188 69 202 50 202 -15 0 -19 5 -15 16 20 51 19 64 -5 64
-13 0 -40 -4 -59 -9 -19 -6 -60 -13 -90 -16 -30 -3 -64 -9 -74 -12 -11 -3 -33
-7 -50 -8 -17 -2 -60 -7 -96 -13 -36 -6 -90 -13 -120 -17 -30 -3 -66 -8 -80
-10 -14 -2 -47 -7 -75 -10 -27 -3 -66 -7 -85 -10 -46 -6 -112 -13 -180 -20
-30 -3 -71 -7 -90 -10 -19 -2 -62 -7 -95 -10 -122 -11 -171 -15 -225 -20 -125
-12 -159 -15 -240 -20 -47 -3 -105 -8 -130 -10 -25 -3 -83 -7 -130 -10 -47 -3
-112 -8 -145 -10 -33 -2 -107 -7 -165 -10 -58 -4 -132 -8 -165 -10 -33 -2
-116 -7 -185 -10 -69 -3 -161 -8 -205 -10 -72 -4 -152 -7 -515 -20 -768 -28
-2030 -33 -2875 -11 -365 10 -726 23 -860 31 -38 2 -128 7 -200 10 -71 3 -164
8 -205 10 -41 2 -122 7 -180 10 -58 3 -118 8 -135 10 -16 3 -80 7 -142 10 -62
3 -127 8 -145 10 -18 2 -70 6 -116 10 -46 3 -104 7 -130 10 -26 2 -81 7 -122
10 -41 3 -95 8 -120 10 -58 6 -141 14 -210 21 -30 2 -71 7 -90 9 -19 3 -57 7
-85 10 -27 3 -66 7 -85 10 -19 2 -55 7 -80 10 -25 3 -76 10 -115 15 -38 5 -91
12 -117 15 -26 2 -58 7 -70 10 -13 2 -45 7 -71 10 -27 2 -52 7 -55 9 -4 2 -34
7 -67 11 -32 3 -62 8 -65 10 -3 2 -29 6 -58 10 -53 6 -54 6 -46 -17z m9419
-260 c-4 -13 -15 -45 -25 -73 -21 -58 -66 -185 -106 -300 -26 -77 -58 -168
-214 -615 -39 -113 -90 -259 -112 -325 -22 -66 -44 -123 -47 -126 -3 -4 -100
-10 -216 -13 -115 -3 -228 -8 -250 -11 -22 -2 -76 -6 -120 -10 -44 -3 -91 -7
-105 -9 -14 -3 -50 -7 -81 -11 -31 -3 -65 -7 -75 -9 -11 -2 -41 -7 -69 -10
-116 -15 -324 -58 -530 -110 -76 -19 -198 -59 -325 -107 -47 -17 -179 -64
-295 -104 -656 -227 -919 -320 -1340 -473 -161 -58 -486 -185 -589 -230 l-89
-38 -86 37 c-88 37 -436 174 -481 189 -14 5 -63 22 -110 40 -208 77 -607 219
-940 335 -74 26 -166 58 -205 72 -38 14 -74 26 -80 27 -5 2 -17 6 -25 9 -8 3
-64 22 -125 42 -60 21 -157 55 -215 77 -267 101 -480 160 -775 212 -137 24
-162 28 -275 41 -30 4 -66 9 -80 11 -14 2 -63 6 -110 10 -47 3 -96 8 -110 10
-14 2 -126 7 -250 10 -124 4 -226 7 -227 9 -2 1 -23 60 -47 131 -25 71 -72
208 -106 304 -34 96 -81 231 -105 300 -44 129 -173 499 -219 629 -14 41 -26
77 -26 81 0 3 57 -1 127 -11 140 -19 193 -25 268 -34 28 -3 64 -8 80 -10 17
-2 57 -7 90 -10 33 -3 74 -8 90 -10 17 -2 57 -7 90 -10 33 -3 80 -8 105 -10
25 -2 74 -7 110 -10 36 -3 85 -8 110 -10 42 -4 91 -8 228 -20 31 -2 98 -7 147
-10 50 -3 110 -8 135 -10 25 -3 90 -7 145 -10 55 -3 127 -7 160 -10 78 -6 222
-14 360 -20 61 -3 151 -7 200 -10 50 -2 162 -7 250 -10 88 -3 210 -7 270 -10
733 -27 2567 -27 3185 0 58 3 173 7 255 10 83 3 191 8 240 10 354 16 413 19
580 30 44 3 116 7 160 10 93 5 264 17 420 30 33 3 85 7 116 10 98 7 193 15
234 20 22 2 69 7 105 10 36 3 81 8 100 10 19 2 64 7 100 10 36 4 76 8 90 10
14 2 50 6 80 10 30 3 73 8 95 11 22 3 54 7 70 9 70 7 147 17 260 35 66 10 124
19 128 19 5 1 5 -9 2 -21z"/>
<path d="M4342 9084 c-95 -16 -147 -49 -174 -112 -11 -26 -30 -67 -41 -92 -19
-40 -22 -66 -24 -220 -4 -197 8 -263 55 -314 27 -29 76 -54 122 -63 94 -19
338 -1 393 29 14 7 26 6 43 -2 19 -10 26 -10 38 -1 8 7 20 10 26 6 11 -7 28 7
54 47 17 25 16 27 -5 42 -21 14 -21 18 -9 41 12 22 11 27 -5 39 -17 12 -19 29
-21 157 -3 355 -54 441 -264 448 -36 1 -76 3 -90 5 -14 1 -58 -3 -98 -10z
m217 -227 c7 -6 18 -23 23 -37 11 -28 21 -180 12 -180 -3 0 -24 13 -47 28 -23
16 -47 32 -53 35 -14 8 -69 -68 -59 -82 3 -6 -5 -26 -19 -44 -33 -43 -33 -48
5 -70 18 -10 30 -19 28 -21 -2 -2 -28 0 -58 5 -88 14 -93 24 -92 178 1 146 14
197 53 206 72 16 176 7 207 -18z"/>
<path d="M9117 9094 c-1 -1 -37 -4 -79 -7 -95 -6 -159 -35 -193 -85 -14 -20
-25 -42 -25 -48 0 -7 -12 -36 -27 -65 -28 -53 -28 -55 -27 -249 l0 -195 30
-60 c25 -51 37 -64 79 -85 47 -23 60 -25 195 -25 294 1 373 64 345 275 -5 36
-8 68 -7 73 1 4 -29 7 -68 7 l-70 0 0 -34 c0 -46 -9 -66 -26 -59 -9 3 -14 -2
-14 -16 0 -29 -21 -35 -115 -34 -87 0 -139 18 -147 50 -4 16 -4 221 1 279 0
11 11 30 22 43 20 21 28 22 106 18 106 -5 120 -17 122 -99 1 -28 2 -28 69 -28
38 0 72 3 76 8 8 7 13 8 41 11 14 1 14 42 0 121 -3 14 -7 41 -10 60 -15 91
-80 137 -203 142 -40 2 -74 3 -75 2z"/>
<path d="M4929 9080 c-1 -6 -3 -23 -4 -40 -1 -16 -3 -34 -4 -40 0 -5 -7 -7
-15 -4 -7 3 -15 -1 -18 -8 -10 -31 -1 -564 10 -599 17 -50 61 -88 120 -103 55
-15 281 -18 322 -5 14 4 43 13 66 18 53 14 100 60 115 113 13 45 15 536 3 630
l-6 46 -66 -1 c-72 -2 -68 2 -71 -68 -1 -19 -6 -26 -18 -25 -17 1 -18 -17 -19
-247 -1 -136 -4 -250 -7 -253 -3 -3 -45 -7 -93 -9 -86 -3 -142 8 -156 29 -4 6
-8 120 -8 254 0 135 -4 242 -9 242 -5 0 -8 18 -6 39 l2 40 -68 0 c-38 0 -70
-4 -70 -9z"/>
<path d="M5834 9051 c-8 -20 -20 -45 -26 -56 -13 -23 -238 -693 -238 -710 0
-7 25 -11 70 -11 39 1 70 4 70 8 0 5 13 8 28 8 26 0 30 5 47 60 10 33 21 60
24 61 3 1 61 2 128 3 l123 1 23 -70 24 -70 71 0 c40 -1 72 3 72 7 0 4 12 8 26
8 24 0 26 3 20 28 -4 15 -9 41 -11 57 -2 17 -56 182 -119 369 -64 186 -116
340 -116 342 0 2 -45 3 -101 2 l-101 -1 -14 -36z m112 -283 c4 -13 9 -27 10
-33 1 -5 9 -30 18 -54 26 -70 24 -72 -44 -70 -51 2 -60 5 -55 18 4 9 16 49 28
89 11 39 24 72 28 72 4 0 11 -10 15 -22z"/>
<path d="M6379 9076 c-1 -6 -1 -17 1 -25 4 -29 -11 -62 -27 -59 -14 3 -15 -32
-15 -347 0 -192 1 -354 1 -360 1 -12 471 -15 471 -3 0 5 13 8 28 8 27 0 28 1
28 60 0 33 -4 60 -8 60 -4 0 -8 18 -8 40 0 46 19 42 -181 42 l-136 -1 0 255
c-1 140 -3 258 -7 261 -3 4 -6 24 -6 45 l0 38 -70 -1 c-44 -1 -70 -5 -71 -13z"/>
<path d="M6949 9083 c-1 -4 -3 -21 -4 -38 -4 -50 -5 -55 -12 -54 -5 1 -13 1
-18 0 -7 -1 -10 -122 -9 -353 1 -194 2 -356 3 -359 2 -8 129 -4 137 4 4 4 18
7 31 7 l23 0 0 358 c0 197 -3 362 -7 366 -5 4 -8 22 -8 39 l0 32 -67 3 c-38 2
-69 -1 -69 -5z"/>
<path d="M7179 9077 c-1 -7 -1 -29 -1 -49 1 -31 -2 -36 -18 -33 -21 4 -22 2
-22 -40 0 -14 0 -38 1 -55 l1 -30 100 3 c83 2 100 -1 101 -13 1 -8 3 -139 4
-290 1 -151 3 -280 4 -286 1 -11 125 -13 137 -1 4 4 18 7 31 7 l23 0 0 290 0
290 74 0 c41 0 77 4 80 8 3 5 15 8 28 7 15 -1 25 5 28 17 4 14 36 -33 113
-166 l107 -185 0 -138 0 -139 70 0 c39 1 70 4 70 8 0 5 13 8 28 8 l29 0 1 139
1 139 130 216 c72 120 131 219 131 222 0 2 -14 4 -30 4 l-31 0 26 38 25 37
-71 3 c-40 2 -78 1 -85 -2 -6 -2 -49 -70 -94 -150 -45 -80 -83 -146 -85 -146
-3 0 -28 43 -88 150 -17 30 -43 75 -57 100 l-26 45 -77 3 c-42 2 -77 -1 -77
-5 0 -4 9 -23 20 -40 16 -27 17 -33 5 -33 -8 0 -15 -5 -15 -12 0 -7 -7 -5 -18
5 -13 12 -17 27 -14 51 l4 35 -281 0 c-211 0 -281 -3 -282 -12z"/>
<path d="M9679 9053 c-6 -21 -16 -43 -21 -50 -6 -8 -248 -717 -248 -728 0 -4
138 3 150 8 8 3 24 7 35 9 14 2 24 18 35 53 8 28 18 55 22 60 5 8 187 13 245
6 6 0 21 -30 33 -66 12 -36 25 -66 28 -66 33 -6 132 -4 132 3 0 4 14 8 31 8
26 0 30 3 24 18 -4 9 -9 33 -12 52 -5 33 -226 700 -238 721 -4 5 -51 9 -105 9
l-98 0 -13 -37z m128 -330 c38 -123 42 -110 -27 -112 -33 0 -60 3 -60 9 0 5 9
33 19 62 10 29 22 65 25 81 4 15 10 27 14 27 5 0 18 -30 29 -67z"/>
<path d="M10225 9080 c-4 -6 -5 -27 -3 -48 2 -24 -1 -37 -10 -38 -6 -1 -16 -2
-21 -3 -5 0 -8 -160 -7 -358 l1 -358 63 0 c35 -1 66 3 68 7 3 4 16 8 30 8 20
0 24 5 25 33 0 17 0 69 1 113 l1 82 92 -2 c68 -2 99 -7 119 -19 28 -18 27 -18
30 -152 l1 -69 68 -1 c37 -1 70 2 73 7 3 4 17 8 31 8 l25 0 -5 123 c-5 114 -8
143 -22 186 -3 10 3 37 14 61 34 75 20 274 -25 350 -10 18 -37 42 -59 54 -36
19 -60 21 -262 24 -148 2 -224 -1 -228 -8z m373 -236 c18 -20 22 -36 20 -68
l-3 -41 -122 -3 -122 -3 1 70 c2 81 -5 77 123 74 73 -2 82 -4 103 -29z"/>
<path d="M11030 9078 c-45 -12 -97 -62 -106 -101 -3 -16 -16 -46 -27 -65 -17
-29 -22 -53 -22 -117 0 -97 23 -151 76 -177 l34 -18 -38 0 -38 0 4 -45 c3 -38
0 -44 -17 -47 -17 -2 -21 -11 -23 -43 -3 -85 38 -154 105 -176 43 -14 243 -19
315 -8 164 26 202 62 212 206 3 43 -21 187 -36 215 -14 29 -59 67 -78 68 -8 0
-12 3 -9 6 6 5 34 11 83 17 17 2 20 9 18 47 -4 130 -29 193 -89 224 -34 18
-59 21 -184 23 -80 0 -161 -3 -180 -9z m223 -199 c27 -14 41 -36 43 -68 1 -23
1 -23 -91 -18 -127 7 -162 30 -118 79 12 14 31 18 80 18 35 0 74 -5 86 -11z
m24 -315 c24 -15 39 -56 28 -73 -4 -7 -46 -11 -104 -11 -114 0 -137 11 -151
73 l-8 38 106 -6 c67 -4 115 -12 129 -21z"/>
<path d="M7540 7507 l-275 -90 50 -23 c31 -15 44 -25 35 -28 -8 -3 -40 -14
-70 -25 l-55 -19 40 -17 c22 -9 54 -23 70 -30 17 -7 77 -32 135 -55 58 -23
119 -48 135 -55 114 -51 161 -66 198 -59 31 5 562 216 574 228 2 2 -22 12 -53
22 l-57 18 52 19 52 20 -38 14 c-21 8 -78 27 -128 43 -49 15 -139 45 -200 65
-60 20 -128 42 -150 49 -38 12 -51 9 -315 -77z"/>
<path d="M3249 8406 c-3 -3 -20 -8 -39 -11 -232 -39 -552 -151 -708 -247 l-34
-21 32 -15 31 -15 -50 -29 c-44 -26 -59 -48 -32 -48 5 0 142 -65 305 -145 163
-80 302 -145 309 -145 7 0 106 23 220 51 l208 52 -7 26 c-4 14 -8 37 -9 51 -1
14 -8 41 -17 60 -109 247 -191 426 -197 433 -4 4 -9 5 -12 3z"/>
<path d="M12327 8311 c-50 -106 -86 -185 -139 -306 -64 -143 -78 -178 -75
-181 1 -1 85 -23 187 -49 162 -41 189 -45 226 -36 23 6 167 72 320 147 154 75
290 140 304 146 l25 10 -30 24 c-16 13 -34 24 -40 24 -5 1 5 9 24 19 l35 18
-42 27 c-132 83 -401 178 -664 235 l-86 19 -45 -97z"/>
<path d="M3794 7709 c-87 -38 -165 -68 -172 -69 -26 0 -1 -20 41 -31 l41 -11
-69 -32 -70 -33 50 -16 c28 -8 212 -70 410 -138 198 -67 367 -122 375 -122 8
0 31 3 50 7 121 24 306 52 410 61 157 14 580 23 580 13 0 -5 -8 -8 -17 -9 -37
-2 -523 -95 -529 -102 -3 -3 25 -15 63 -28 l68 -23 -90 -21 -90 -21 45 -18
c64 -26 192 -66 260 -82 8 -1 67 -16 130 -33 151 -38 301 -72 567 -126 248
-50 216 -44 474 -90 108 -20 205 -37 215 -39 36 -7 109 -19 124 -21 8 -1 31
-5 50 -9 19 -3 49 -8 65 -11 227 -38 228 -38 219 -24 -5 9 2 10 24 6 18 -4 32
-4 32 -1 0 4 -15 25 -32 47 -20 25 -26 39 -17 35 9 -4 21 -2 26 3 16 16 216
-216 350 -406 122 -173 276 -446 353 -625 40 -94 46 -100 61 -64 l11 29 15
-22 c15 -22 17 -18 79 114 116 248 249 474 393 666 73 98 193 241 240 288 9 8
30 30 46 49 24 26 26 31 10 25 -11 -4 -29 -8 -40 -10 -11 -1 -20 -3 -20 -4 0
-2 -9 -4 -19 -6 -13 -2 -1 15 35 52 31 32 46 53 34 49 -43 -16 -344 -129 -402
-152 -105 -40 -184 -70 -274 -104 l-85 -31 -170 65 c-93 35 -263 100 -379 145
-115 44 -212 77 -215 75 -3 -3 9 -18 25 -33 17 -15 39 -37 49 -49 l19 -22 -34
11 c-19 7 -41 17 -49 23 -8 5 -2 -4 14 -21 l28 -32 -53 21 c-45 16 -64 32
-113 92 l-58 72 -277 103 c-152 56 -285 106 -296 111 -11 5 -143 55 -292 111
l-273 101 -72 -14 c-72 -14 -74 -14 -171 18 -53 17 -99 33 -102 35 -2 3 46 4
108 2 l112 -2 -115 40 c-304 105 -693 221 -820 243 -19 3 -46 8 -60 11 -23 5
-125 20 -197 30 -72 10 -177 16 -319 19 l-150 3 -160 -68z"/>
<path d="M11447 7774 c-1 -1 -47 -4 -102 -8 -214 -12 -444 -55 -701 -130 -125
-37 -606 -195 -613 -202 -3 -2 46 -2 108 0 61 2 110 2 108 0 -6 -6 -181 -67
-192 -67 -5 0 -35 4 -65 8 -30 5 -71 9 -90 8 -21 0 -262 -85 -590 -209 l-556
-208 -69 -85 c-39 -46 -76 -93 -84 -104 -13 -18 -13 -20 2 -14 25 9 21 0 -18
-46 -19 -22 -33 -42 -31 -44 2 -2 34 1 72 8 38 6 83 13 99 16 588 95 1289 234
1635 324 134 34 403 119 397 125 -4 4 -103 25 -124 27 -15 1 -6 17 10 17 7 0
34 8 61 19 l49 18 -139 27 c-77 15 -152 30 -169 33 -16 2 -72 13 -124 24 -51
10 -105 19 -119 19 -14 0 -22 3 -19 6 11 11 366 3 497 -11 19 -2 64 -6 100
-10 81 -8 97 -10 240 -37 63 -11 126 -20 140 -19 14 0 217 66 452 145 l428
143 -56 25 -55 25 46 13 c25 7 42 17 38 21 -4 4 -78 38 -163 75 l-155 67 -123
1 c-67 1 -124 1 -125 0z"/>
<path d="M4591 6488 c-6 -23 -22 -86 -37 -138 -14 -52 -27 -121 -29 -153 -5
-79 21 -109 125 -141 111 -33 191 -24 225 28 15 23 95 301 95 332 0 7 -7 14
-15 14 -8 0 -15 4 -15 8 0 4 -17 13 -39 18 l-39 11 -42 -159 c-47 -175 -51
-179 -126 -161 -60 14 -61 23 -17 189 l40 149 -27 17 c-15 10 -40 21 -57 24
-29 6 -31 4 -42 -38z"/>
<path d="M4995 6427 c-5 -15 -74 -313 -81 -347 -2 -14 -6 -29 -8 -35 -6 -18
13 -55 29 -55 8 0 62 -11 120 -25 58 -14 116 -23 129 -19 33 8 52 74 21 74 -8
0 -15 4 -15 9 0 5 -34 17 -76 26 -69 15 -76 19 -71 38 2 12 19 84 37 161 26
111 30 140 19 147 -7 4 -17 5 -23 2 -5 -3 -6 -1 -2 5 4 7 -4 14 -21 18 -15 3
-34 7 -41 10 -7 2 -15 -2 -17 -9z"/>
<path d="M10473 6406 c-42 -9 -42 -9 -69 -90 -15 -44 -28 -83 -30 -85 -3 -3
-33 26 -69 63 -63 65 -66 67 -102 60 -21 -4 -41 -8 -44 -10 -10 -6 -3 -45 12
-62 8 -9 51 -58 95 -108 79 -89 81 -92 94 -168 7 -42 16 -76 21 -76 4 0 31 5
58 11 46 10 50 13 45 33 -7 28 -9 40 -18 96 -6 39 -1 63 42 180 43 120 47 135
31 138 -10 2 -19 9 -21 15 -2 9 -14 10 -45 3z"/>
<path d="M5255 6370 c-8 -14 -9 -79 -1 -88 4 -4 29 -12 54 -17 39 -9 46 -14
43 -30 -2 -11 -15 -78 -30 -150 -32 -160 -31 -171 15 -178 55 -9 80 5 87 50
15 89 19 112 35 188 l17 80 50 0 c56 0 67 -8 55 -40 -5 -12 -11 -42 -14 -66
-3 -24 -10 -73 -16 -109 -7 -36 -13 -82 -15 -102 -2 -35 -1 -37 34 -42 76 -12
85 1 105 159 3 22 8 56 12 75 3 19 11 67 18 106 l12 70 -37 18 c-24 12 -49 17
-67 13 -16 -3 -33 -2 -38 3 -5 5 -77 23 -159 40 -176 35 -153 32 -160 20z"/>
<path d="M10017 6324 c-1 -1 -21 -4 -44 -8 -24 -3 -72 -10 -107 -17 l-64 -11
5 -36 c3 -21 20 -120 37 -222 l31 -185 34 3 c19 2 44 8 56 12 21 8 22 10 10
73 l-12 65 51 10 c70 14 92 0 101 -68 7 -48 8 -50 38 -49 63 2 82 13 79 45 -5
65 -25 116 -49 127 l-23 10 21 20 c19 18 21 27 15 79 -7 74 -17 91 -68 129
-30 21 -51 29 -75 27 -19 -1 -35 -3 -36 -4z m54 -128 c7 -14 9 -35 5 -49 -5
-20 -15 -26 -63 -36 -31 -6 -60 -8 -64 -4 -4 5 -10 29 -13 55 l-7 47 33 4 c84
10 98 8 109 -17z"/>
<path d="M5729 6263 c0 -15 -2 -35 -3 -43 -2 -8 -6 -40 -10 -70 -3 -30 -8 -66
-10 -80 -10 -58 -18 -128 -22 -172 -3 -45 -2 -48 24 -54 15 -3 32 -7 39 -9 6
-2 14 -1 18 3 4 4 11 7 17 7 12 0 13 7 23 95 3 30 8 64 10 75 2 11 4 34 5 50
1 17 15 -26 31 -95 16 -69 32 -131 37 -139 10 -17 37 -23 77 -16 27 4 37 17
84 105 29 55 55 100 57 100 5 0 -3 -78 -12 -124 -7 -36 -8 -96 -1 -103 14 -13
98 -8 108 7 8 12 9 11 7 -5 -3 -18 3 -20 50 -21 50 -1 53 0 68 32 l16 34 72
-6 c39 -3 74 -8 77 -10 4 -2 9 -22 13 -44 6 -38 8 -40 44 -41 20 -1 44 0 52 1
18 2 31 21 23 32 -4 7 -44 177 -57 243 -26 130 -37 161 -64 172 -44 19 -118
25 -129 11 -5 -7 -22 -42 -38 -78 -15 -36 -44 -99 -63 -140 -18 -41 -40 -90
-48 -107 -8 -18 -17 -33 -20 -33 -3 0 -3 3 -1 8 3 4 8 30 11 57 4 28 9 64 11
80 8 54 14 99 21 163 5 52 4 62 -9 62 -8 0 -17 4 -19 9 -1 5 -28 12 -58 16
-30 4 -58 8 -63 8 -7 2 -53 -78 -114 -198 l-26 -50 -17 75 c-10 41 -23 101
-30 133 -6 33 -16 55 -21 51 -6 -3 -16 1 -22 9 -7 9 -37 18 -74 22 l-63 7 -1
-29z m730 -270 c15 -74 15 -74 -11 -69 -13 3 -33 5 -45 5 l-21 1 26 60 c15 33
30 60 33 60 3 0 11 -26 18 -57z"/>
<path d="M9667 6264 c-3 -4 4 -74 24 -227 15 -118 9 -128 -74 -135 -63 -5 -59
-13 -78 133 -6 50 -13 97 -14 105 -2 8 -4 27 -4 43 -1 17 -6 27 -16 27 -9 0
-18 6 -21 14 -3 8 -13 13 -22 11 -9 -2 -27 -4 -39 -4 -13 -1 -23 -7 -23 -16 0
-8 -7 -15 -15 -15 -8 0 -15 6 -15 13 0 16 -77 10 -87 -7 -5 -6 -22 -42 -39
-79 l-31 -68 -36 48 c-37 51 -84 90 -104 87 -7 -1 -26 -2 -43 -3 -22 -1 -28
-5 -24 -16 7 -17 -16 -21 -33 -4 -6 6 -26 9 -44 7 -39 -4 -38 10 -25 -205 l8
-133 -26 -10 c-32 -12 -116 -14 -117 -2 0 4 -2 16 -4 27 -4 18 -17 187 -19
249 -1 16 -8 32 -16 34 -8 3 -18 10 -22 17 -4 6 -22 9 -44 7 l-37 -5 7 -121
c4 -67 8 -133 10 -147 3 -13 7 -45 11 -71 7 -56 42 -95 88 -100 53 -5 184 10
221 26 20 8 42 28 51 47 18 33 18 35 -1 279 -3 44 -2 71 4 65 42 -48 112 -146
112 -158 0 -8 -22 -58 -50 -111 -27 -53 -45 -96 -40 -96 5 0 7 -7 4 -15 -7
-18 32 -20 87 -5 32 9 39 18 69 85 l33 75 51 -70 51 -71 50 6 c28 4 56 7 63 7
6 1 12 4 12 7 0 3 -34 49 -75 102 l-75 97 43 91 c23 50 44 91 47 91 3 0 13
-60 23 -132 21 -169 31 -202 65 -224 44 -30 203 -17 279 23 56 29 61 72 33
258 -5 33 -12 81 -15 108 -4 31 -11 47 -21 47 -8 0 -14 4 -14 10 0 9 -75 12
-83 4z"/>
<path d="M6620 6131 c0 -28 3 -51 8 -51 60 -3 115 -17 109 -27 -5 -8 -19 -202
-21 -283 l-1 -45 58 -1 c51 0 57 2 58 20 0 12 3 39 5 61 6 60 12 154 13 207
l1 47 55 -2 55 -2 -4 -75 c-5 -77 -8 -205 -7 -250 1 -25 3 -26 79 -29 85 -3
185 -4 220 -2 18 1 22 7 22 36 0 24 -5 35 -14 35 -8 0 -16 4 -18 10 -2 8 -47
14 -153 19 -17 1 -21 7 -19 39 1 20 2 40 3 43 1 6 111 2 144 -5 9 -2 17 0 17
6 0 6 7 8 15 4 8 -3 15 0 16 7 0 7 2 20 4 30 2 10 -4 21 -13 24 -9 4 -19 10
-22 14 -3 4 -39 9 -80 12 -41 3 -76 6 -77 6 -1 1 -2 17 -1 36 l1 36 81 -2
c125 -2 123 -3 128 31 7 49 -33 67 -160 69 -57 1 -112 4 -122 6 -11 2 -27 -3
-35 -11 -13 -14 -15 -14 -15 0 0 12 -11 16 -42 17 -24 1 -56 2 -73 4 -16 1
-72 5 -122 9 l-93 7 0 -50z"/>
<path d="M8334 6142 c-8 -4 -11 -30 -9 -67 2 -33 6 -127 10 -208 7 -158 10
-178 28 -172 7 2 64 6 127 9 122 6 139 8 156 18 15 10 5 68 -12 68 -8 0 -14 5
-14 11 0 7 -26 10 -80 7 -96 -5 -87 -20 -94 172 -3 74 -5 139 -5 143 -1 5 -6
5 -11 2 -6 -3 -13 1 -16 9 -6 17 -59 22 -80 8z"/>
<path d="M4349 5255 c-1 -5 -2 -75 -3 -155 -2 -131 0 -146 17 -156 26 -15 77
-6 78 15 1 9 1 37 1 62 l1 45 51 -1 c73 -2 86 3 86 35 0 16 -5 28 -12 27 -7 0
-38 1 -69 1 l-56 2 0 34 0 33 71 -1 71 -1 5 -100 c6 -121 17 -141 83 -154 90
-16 182 5 198 46 5 13 9 80 9 148 0 102 -2 123 -14 119 -8 -3 -17 -1 -20 4 -3
6 -18 7 -33 3 l-28 -7 0 -117 c-1 -64 -4 -119 -8 -123 -13 -13 -76 -14 -84 -2
-4 7 -8 65 -9 128 -1 99 -3 115 -17 112 -8 -1 -18 2 -22 7 -3 6 -11 8 -18 6
-26 -9 -77 -13 -77 -6 0 11 -200 8 -201 -4z"/>
<path d="M4903 5257 c-11 -18 -7 -297 5 -309 14 -14 300 -14 314 0 6 6 8 33 7
61 -2 28 -2 51 1 52 3 1 30 2 61 3 30 2 61 6 67 10 9 5 12 -10 12 -58 0 -74 9
-84 65 -78 l35 4 0 154 0 154 -27 5 c-16 4 -36 8 -45 10 -10 2 -21 -1 -24 -7
-3 -5 -13 -6 -23 -2 -9 4 -62 8 -118 9 l-103 1 0 -132 0 -132 -58 2 c-31 1
-62 5 -67 8 -7 4 -10 53 -10 122 l1 115 -26 7 c-40 11 -60 11 -67 1z m467
-104 c0 -40 -2 -43 -19 -33 -11 5 -42 10 -70 10 l-51 0 0 33 0 34 70 0 70 1 0
-45z"/>
<path d="M5489 5266 c-1 0 -2 -70 -3 -154 -1 -114 2 -156 11 -164 12 -9 96
-13 203 -9 19 1 73 1 120 1 47 -1 101 0 120 1 19 1 40 0 45 -1 6 -1 22 -2 37
-1 l28 1 -3 157 c-2 172 4 157 -67 165 l-25 3 -3 -132 -3 -131 -62 1 c-34 1
-64 5 -67 9 -3 4 -5 59 -5 122 1 107 -1 115 -20 121 -38 12 -67 11 -73 -3 -3
-8 -6 -69 -7 -136 -1 -66 -3 -123 -3 -125 -1 -2 -8 1 -14 6 -7 6 -36 9 -64 8
l-52 -1 2 123 c0 68 -1 123 -4 124 -3 0 -14 3 -25 5 -24 6 -65 12 -66 10z"/>
<path d="M6067 5256 c-2 -6 -3 -76 -3 -156 1 -140 2 -145 24 -156 12 -6 34 -9
47 -6 24 4 25 6 22 93 -1 49 1 89 4 89 3 0 20 -28 37 -62 61 -123 63 -125 118
-121 73 5 75 7 73 58 -3 54 6 69 15 23 11 -61 63 -86 168 -82 70 3 113 21 123
54 8 24 9 109 2 116 -3 3 -42 8 -86 11 -81 4 -81 4 -81 -21 0 -29 10 -37 49
-38 23 -1 27 -5 23 -20 -6 -24 -32 -38 -67 -35 -22 2 -30 9 -36 31 -9 34 -6
137 5 154 9 15 96 16 96 1 0 -6 6 -16 13 -22 11 -11 22 -12 72 -8 21 1 19 44
-3 71 -22 27 -77 38 -168 34 -82 -4 -105 -22 -115 -91 l-6 -48 -2 63 c-1 59
-6 68 -33 63 -5 0 -8 3 -8 7 0 5 -12 8 -27 7 l-28 -1 0 -87 c0 -48 -3 -87 -6
-87 -4 0 -25 38 -48 83 -22 46 -46 84 -53 85 -66 8 -118 7 -121 -2z"/>
<path d="M6843 5261 c-14 -10 -10 -298 4 -312 16 -16 177 -16 225 0 19 6 41
23 48 36 16 29 30 33 28 8 -4 -48 1 -53 47 -53 l45 0 0 53 0 52 45 -3 45 -4 0
-43 c0 -24 5 -47 11 -50 19 -12 81 -7 90 6 6 11 9 11 14 -1 5 -14 63 -16 300
-10 13 0 25 10 31 29 10 26 15 28 62 28 47 0 52 -2 61 -27 9 -26 13 -28 75
-32 111 -5 111 -5 110 85 0 42 0 77 1 77 1 0 15 -34 30 -76 29 -80 44 -94 94
-86 24 3 31 13 52 74 13 38 26 71 29 73 3 2 4 -24 3 -58 -4 -68 2 -84 32 -87
51 -6 66 0 65 23 -3 36 -1 37 29 6 18 -17 41 -30 58 -30 66 -3 130 2 156 13
71 28 58 160 -16 173 -33 6 -92 13 -114 14 -16 1 -17 43 -3 57 18 18 71 4 82
-21 6 -13 17 -22 27 -20 9 2 26 4 39 4 17 1 22 7 22 29 0 54 -60 81 -168 76
-68 -2 -97 -19 -105 -58 -3 -14 -5 -10 -6 12 -1 28 -5 33 -33 39 -28 6 -76 8
-99 4 -4 -1 -22 -43 -40 -93 l-33 -93 -12 40 c-28 90 -52 138 -70 141 -24 4
-75 6 -96 5 -16 -1 -18 -15 -19 -138 l0 -138 -47 134 c-37 107 -51 135 -67
138 -24 4 -75 6 -92 4 -6 0 -30 -58 -54 -128 -41 -125 -53 -148 -73 -136 -5 3
-35 6 -68 5 l-58 -1 0 38 0 37 58 -1 c74 -1 91 3 87 23 -2 10 -4 21 -4 26 -1
4 -8 6 -16 2 -8 -3 -15 -2 -15 2 0 5 -19 7 -42 7 -59 -2 -68 3 -68 35 l0 29
65 -3 c36 -1 65 2 65 7 0 4 4 6 9 3 5 -4 11 0 14 6 6 18 -12 50 -24 43 -5 -4
-9 -2 -9 3 0 11 -190 10 -207 -1 -6 -4 -10 -16 -8 -27 5 -23 -10 -27 -19 -5
-3 8 -18 20 -33 26 -28 11 -208 20 -229 12 -7 -2 -10 -19 -8 -39 1 -19 -1 -34
-7 -34 -5 0 -9 5 -9 11 0 21 -41 47 -83 55 -54 9 -193 13 -204 5z m194 -75 c3
-3 6 -38 5 -78 -1 -84 -17 -106 -73 -103 l-34 2 -3 96 -3 96 51 -3 c28 -2 54
-7 57 -10z m290 1 c11 -7 10 -48 -2 -66 -3 -6 -24 -11 -46 -11 l-39 0 0 43 0
44 38 -2 c21 -1 43 -5 49 -8z m1117 -101 c19 -9 57 -16 85 -16 50 0 51 -1 51
-29 0 -31 -14 -41 -60 -41 -22 0 -29 5 -32 23 -2 12 -9 23 -15 23 -7 1 -16 3
-20 4 -5 1 -20 1 -35 0 -22 -1 -27 3 -30 27 -2 15 -1 42 1 58 l4 30 9 -31 c5
-22 18 -37 42 -48z m-591 20 c14 -41 14 -44 -3 -49 -34 -9 -43 6 -29 52 7 22
13 41 15 41 1 0 9 -20 17 -44z m-418 -25 l0 -49 -20 22 c-19 20 -19 22 -2 39
9 9 17 22 17 27 0 6 1 10 3 10 1 0 2 -22 2 -49z m-288 -53 c-3 -8 -6 -5 -6 6
-1 11 2 17 5 13 3 -3 4 -12 1 -19z"/>
<path d="M8860 5259 c-41 -9 -60 -32 -60 -75 0 -77 35 -109 125 -113 27 -2 53
-5 57 -7 13 -8 9 -41 -6 -53 -18 -15 -81 -10 -82 7 -1 6 -2 16 -3 20 0 5 -21
9 -46 11 -39 2 -45 -1 -45 -18 0 -32 20 -68 46 -81 30 -17 154 -16 193 0 17 6
35 24 41 39 l10 26 -4 -27 c-2 -16 3 -33 11 -39 17 -15 74 -14 82 0 4 6 7 77
6 158 0 135 -2 148 -18 145 -9 -2 -17 1 -17 5 0 4 -13 8 -30 8 l-30 0 -1 -70
c-1 -38 -1 -83 -1 -98 l1 -28 -20 25 c-20 25 -49 35 -120 41 -45 4 -46 4 -49
25 -5 34 1 40 39 40 30 0 41 -5 46 -19 3 -10 16 -21 29 -23 27 -5 66 7 66 21
0 28 -23 63 -47 72 -35 13 -129 18 -173 8z"/>
<path d="M9206 5260 c-2 -3 -3 -74 -3 -158 0 -147 1 -154 21 -161 11 -5 32 -5
46 -1 25 6 25 8 24 98 0 51 1 92 3 92 1 0 23 -40 48 -90 25 -49 53 -93 62 -98
18 -8 86 -7 108 2 7 2 11 25 10 55 -1 28 2 51 7 51 4 0 8 -12 8 -26 0 -29 49
-83 77 -85 68 -5 149 3 175 16 36 17 41 18 33 6 -9 -15 32 -23 119 -23 132 0
126 -1 126 30 0 32 1 31 -88 34 l-63 1 3 36 3 35 55 2 c84 2 86 3 86 24 0 24
-25 34 -91 35 -48 0 -50 1 -53 31 l-3 31 53 0 c29 0 65 3 79 6 34 9 34 43 -1
53 -34 10 -220 11 -221 2 -1 -4 -3 -12 -4 -18 -1 -5 -3 -13 -4 -17 0 -4 -7 0
-13 9 -18 23 -73 35 -144 33 -102 -4 -125 -28 -128 -131 -1 -35 -4 -66 -7 -68
-3 -3 -4 37 -4 89 1 103 1 104 -68 110 l-28 2 2 -86 c0 -47 0 -90 0 -96 -1 -5
-23 31 -49 80 -26 50 -53 91 -59 91 -7 1 -14 3 -15 4 -5 6 -99 6 -102 0z m527
-90 c10 -20 19 -25 50 -24 20 1 38 -1 38 -5 1 -3 2 -23 3 -44 2 -38 2 -38 -33
-33 -46 6 -61 -1 -61 -30 0 -13 -3 -24 -7 -25 -5 0 -19 -2 -33 -5 -45 -7 -54
8 -56 96 -1 89 6 101 59 97 18 -1 32 -11 40 -27z"/>
<path d="M10295 5265 c-5 -2 -22 -6 -36 -9 -47 -10 -68 -100 -27 -115 25 -9
67 -3 69 10 1 5 3 14 4 19 1 6 3 15 4 20 1 13 68 13 76 0 4 -6 4 -24 0 -39 -5
-25 -12 -30 -48 -36 -75 -12 -108 -26 -118 -52 -12 -32 -12 -110 1 -118 9 -6
129 -9 223 -6 32 1 37 4 37 25 0 29 -21 36 -112 36 -61 0 -66 2 -61 20 6 21
15 25 82 35 62 10 91 42 91 100 0 59 -12 81 -52 94 -35 11 -116 21 -133 16z"/>
<path d="M10527 5240 c-29 -26 -30 -30 -32 -118 -2 -142 27 -184 128 -185 81
-1 124 11 147 40 17 22 20 40 20 117 0 50 -3 101 -6 113 -9 33 -66 55 -152 57
-69 3 -78 1 -105 -24z m159 -48 c12 -7 14 -166 3 -177 -4 -3 -24 -7 -47 -9
-29 -3 -42 0 -46 11 -8 20 -8 147 0 167 6 17 69 22 90 8z"/>
<path d="M10915 5262 c-11 -2 -41 -24 -67 -48 l-46 -43 19 -25 c17 -21 59 -33
59 -16 0 3 8 10 18 17 18 11 19 6 19 -80 0 -125 3 -133 53 -129 l40 4 0 160
c0 123 -3 159 -12 155 -7 -2 -24 -1 -38 3 -14 3 -34 4 -45 2z"/>
<path d="M11210 5262 c-26 -4 -110 -78 -110 -98 0 -21 35 -43 58 -37 12 3 22
9 22 13 0 4 6 10 14 13 12 5 14 -11 13 -94 -1 -102 3 -116 38 -119 58 -6 55
-13 55 162 0 89 -3 159 -6 156 -3 -4 -18 -3 -32 1 -15 4 -38 5 -52 3z"/>
</g>
</svg>
